<svg width="173" height="41" viewBox="0 0 173 41" fill="none" xmlns="http://www.w3.org/2000/svg">
<g clip-path="url(#clip0_546_8275)">
<path d="M52.7571 34V12.31H61.9071C63.6371 12.31 65.0521 12.585 66.1521 13.135C67.2521 13.685 68.0621 14.45 68.5821 15.43C69.1021 16.4 69.3621 17.52 69.3621 18.79C69.3621 19.93 69.1821 20.895 68.8221 21.685C68.4721 22.465 68.0071 23.115 67.4272 23.635C66.8571 24.155 66.2321 24.58 65.5522 24.91L69.5871 34H65.0421L61.5171 25.645H57.1221V34H52.7571ZM57.1221 22.27H61.1271C62.2971 22.27 63.2221 21.955 63.9021 21.325C64.5921 20.695 64.9371 19.885 64.9371 18.895C64.9371 17.895 64.6071 17.105 63.9471 16.525C63.2871 15.945 62.4521 15.655 61.4421 15.655H57.1221V22.27ZM73.1678 34V12.31H79.5278L84.4928 27.775L89.5028 12.31H95.8478V34H91.4228V17.41L86.2028 34H82.7678L77.5778 17.485V34H73.1678ZM108.359 34.3C107.279 34.3 106.224 34.165 105.194 33.895C104.164 33.625 103.224 33.22 102.374 32.68C101.524 32.14 100.824 31.465 100.274 30.655C99.7338 29.845 99.4088 28.895 99.2988 27.805H103.784C103.934 28.465 104.219 29.02 104.639 29.47C105.069 29.92 105.619 30.265 106.289 30.505C106.969 30.745 107.744 30.865 108.614 30.865C109.304 30.865 109.959 30.765 110.579 30.565C111.199 30.365 111.704 30.06 112.094 29.65C112.484 29.24 112.679 28.725 112.679 28.105C112.679 27.365 112.409 26.81 111.869 26.44C111.329 26.06 110.594 25.76 109.664 25.54L105.599 24.655C104.449 24.415 103.444 24.045 102.584 23.545C101.734 23.035 101.079 22.375 100.619 21.565C100.159 20.745 99.9288 19.75 99.9288 18.58C99.9288 17.23 100.299 16.065 101.039 15.085C101.789 14.105 102.804 13.355 104.084 12.835C105.374 12.305 106.819 12.04 108.419 12.04C110.229 12.04 111.754 12.335 112.994 12.925C114.244 13.505 115.199 14.295 115.859 15.295C116.519 16.285 116.854 17.39 116.864 18.61H112.484C112.404 17.86 112.174 17.26 111.794 16.81C111.414 16.35 110.924 16.02 110.324 15.82C109.734 15.61 109.059 15.505 108.299 15.505C106.989 15.505 106.034 15.77 105.434 16.3C104.834 16.83 104.534 17.445 104.534 18.145C104.534 18.805 104.759 19.34 105.209 19.75C105.669 20.15 106.404 20.455 107.414 20.665L111.179 21.475C112.579 21.745 113.714 22.175 114.584 22.765C115.454 23.345 116.089 24.05 116.489 24.88C116.889 25.71 117.089 26.64 117.089 27.67C117.089 28.98 116.714 30.135 115.964 31.135C115.224 32.125 114.199 32.9 112.889 33.46C111.579 34.02 110.069 34.3 108.359 34.3Z" fill="#566A7F"/>
<path opacity="0.7" d="M13.1538 25.0748L38.6162 25.3931C38.9769 25.3976 39.2853 25.4916 39.5341 25.6776C39.7854 25.8611 39.9088 26.1284 39.9044 26.4769C39.9014 26.7231 39.8399 26.9612 39.7224 27.1937L34.538 37.2502C34.3904 37.5531 34.1434 37.8084 33.802 38.0138C33.4581 38.2167 33.1205 38.3173 32.789 38.3131L8.04326 38.0038C7.75319 38.0001 7.50792 37.9239 7.3074 37.7776C7.10692 37.6288 7.00716 37.418 7.0106 37.1425C7.01313 36.9402 7.12681 36.6223 7.34921 36.1888L13.0458 25.1368C13.0877 25.0959 13.1246 25.0744 13.1538 25.0748Z" fill="#CF69FF"/>
<path opacity="0.7" d="M12.1538 18.0748L37.6162 18.3931C37.9769 18.3976 38.2853 18.4916 38.5341 18.6776C38.7854 18.8611 38.9088 19.1284 38.9044 19.4769C38.9014 19.7231 38.8399 19.9612 38.7224 20.1937L33.538 30.2502C33.3904 30.5531 33.1434 30.8084 32.802 31.0138C32.4581 31.2167 32.1205 31.3173 31.789 31.3131L7.04326 31.0038C6.75319 31.0001 6.50792 30.9239 6.3074 30.7776C6.10692 30.6288 6.00716 30.418 6.0106 30.1425C6.01313 29.9402 6.12681 29.6223 6.34921 29.1888L12.0458 18.1368C12.0877 18.0959 12.1246 18.0744 12.1538 18.0748Z" fill="#69E4CE"/>
<path opacity="0.7" d="M12.1538 22.0748L37.6162 22.3931C37.9769 22.3976 38.2853 22.4916 38.5341 22.6776C38.7854 22.8611 38.9088 23.1284 38.9044 23.4769C38.9014 23.7231 38.8399 23.9612 38.7224 24.1937L33.538 34.2502C33.3904 34.5531 33.1434 34.8084 32.802 35.0138C32.4581 35.2167 32.1205 35.3173 31.789 35.3131L7.04326 35.0038C6.75319 35.0001 6.50792 34.9239 6.3074 34.7776C6.10692 34.6288 6.00716 34.418 6.0106 34.1425C6.01313 33.9402 6.12681 33.6223 6.34921 33.1888L12.0458 22.1368C12.0877 22.0959 12.1246 22.0744 12.1538 22.0748Z" fill="#696CFF"/>
<path opacity="0.7" d="M11.1538 15.0748L36.6162 15.3931C36.9769 15.3976 37.2853 15.4916 37.5341 15.6776C37.7854 15.8611 37.9088 16.1284 37.9044 16.4769C37.9014 16.7231 37.8399 16.9612 37.7224 17.1937L32.538 27.2502C32.3904 27.5531 32.1434 27.8084 31.802 28.0138C31.4581 28.2167 31.1205 28.3173 30.789 28.3131L6.04326 28.0038C5.75319 28.0001 5.50792 27.9239 5.3074 27.7776C5.10692 27.6288 5.00716 27.418 5.0106 27.1425C5.01313 26.9402 5.12681 26.6223 5.34921 26.1888L11.0458 15.1368C11.0877 15.0959 11.1246 15.0744 11.1538 15.0748Z" fill="#FF6984"/>
</g>
<defs>
<clipPath id="clip0_546_8275">
<rect width="173" height="41" fill="white"/>
</clipPath>
</defs>
</svg>
