<svg width="35" height="24" viewBox="0 0 35 24" fill="none" xmlns="http://www.w3.org/2000/svg">
<path opacity="0.7" d="M8.80341 10.0749L33.677 10.3933C34.0294 10.3978 34.3307 10.4918 34.5738 10.6778C34.8192 10.8613 34.9398 11.1285 34.9355 11.4771C34.9325 11.7232 34.8724 11.9614 34.7577 12.1939L29.6932 22.2504C29.549 22.5533 29.3077 22.8086 28.9742 23.0139C28.6383 23.2169 28.3084 23.3175 27.9845 23.3133L3.81101 23.0039C3.52765 23.0003 3.28804 22.9241 3.09216 22.7778C2.89631 22.629 2.79887 22.4181 2.80223 22.1427C2.8047 21.9404 2.91575 21.6225 3.133 21.1889L8.69787 10.137C8.73885 10.0961 8.77484 10.0746 8.80341 10.0749Z" fill="#CF69FF"/>
<path opacity="0.7" d="M7.82655 3.07495L32.7001 3.39327C33.0526 3.39778 33.3539 3.49183 33.5969 3.67776C33.8423 3.86129 33.9629 4.12855 33.9587 4.47708C33.9556 4.72325 33.8956 4.96137 33.7808 5.19392L28.7163 15.2504C28.5721 15.5533 28.3308 15.8086 27.9973 16.0139C27.6614 16.2169 27.3315 16.3175 27.0077 16.3133L2.83414 16.0039C2.55078 16.0003 2.31118 15.9241 2.1153 15.7778C1.91945 15.629 1.822 15.4181 1.82536 15.1427C1.82783 14.9404 1.93888 14.6225 2.15613 14.1889L7.721 3.13698C7.76199 3.09606 7.79797 3.07458 7.82655 3.07495Z" fill="#69E4CE"/>
<path opacity="0.7" d="M7.82655 7.07495L32.7001 7.39327C33.0526 7.39778 33.3539 7.49183 33.5969 7.67776C33.8423 7.86129 33.9629 8.12855 33.9587 8.47708C33.9556 8.72325 33.8956 8.96137 33.7808 9.19392L28.7163 19.2504C28.5721 19.5533 28.3308 19.8086 27.9973 20.0139C27.6614 20.2169 27.3315 20.3175 27.0077 20.3133L2.83414 20.0039C2.55078 20.0003 2.31118 19.9241 2.1153 19.7778C1.91945 19.629 1.822 19.4181 1.82536 19.1427C1.82783 18.9404 1.93888 18.6225 2.15613 18.1889L7.721 7.13698C7.76199 7.09606 7.79797 7.07458 7.82655 7.07495Z" fill="#696CFF"/>
<path opacity="0.7" d="M6.84968 0.0749473L31.7233 0.393268C32.0757 0.397778 32.377 0.491827 32.62 0.677765C32.8655 0.861295 32.986 1.12855 32.9818 1.47708C32.9788 1.72325 32.9187 1.96137 32.8039 2.19392L27.7394 12.2504C27.5952 12.5533 27.354 12.8086 27.0204 13.0139C26.6845 13.2169 26.3547 13.3175 26.0308 13.3133L1.85727 13.0039C1.57391 13.0003 1.33431 12.9241 1.13843 12.7778C0.942579 12.629 0.84513 12.4181 0.848493 12.1427C0.850964 11.9404 0.962015 11.6225 1.17927 11.1889L6.74413 0.136976C6.78512 0.0960603 6.82111 0.0745816 6.84968 0.0749473Z" fill="#FF6984"/>
</svg>
